# xmcd CD database file
#
# Track frame offsets:
#	150
#	22245
#	42140
#	61742
#	84317
#	114477
#	131737
#	150735
#	163867
#
# Disc length: 2550 seconds
#
# Revision: 1
# Processed by: cddbd v1.5PL3 Copyright (c) Steve Scherf et al.
# Submitted via: CDex 1.50beta10
#
DISCID=6f09f409
DTITLE=姫神 - ZIPANGU姫神
DYEAR=1992
DGENRE=New Age
TTITLE0=風、大循環に
TTITLE1=うら青く波涛は澄み
TTITLE2=光の海南
TTITLE3=東方エルドラド
TTITLE4=金銀島
TTITLE5=白くひらける東のそら
TTITLE6=燐光
TTITLE7=天翔ける
TTITLE8=火振り神事<Zipanguのテーマ>
EXTD=YEAR: 1992
EXTT0=
EXTT1=
EXTT2=
EXTT3=
EXTT4=
EXTT5=
EXTT6=
EXTT7=
EXTT8=
PLAYORDER=
